<svg xmlns="http://www.w3.org/2000/svg" viewBox="0 0 24 30" x="0px" y="0px"><title>ui 107</title><g data-name="Layer 2"><path d="M15,4.25A.248.248,0,0,0,15.25,4V1.25H8.75V4A.248.248,0,0,0,9,4.25Z"/><path d="M20.75,20V4A2.748,2.748,0,0,0,18,1.25H16.75V4A1.758,1.758,0,0,1,15,5.75H9A1.758,1.758,0,0,1,7.25,4V1.25H6A2.748,2.748,0,0,0,3.25,4V20A2.748,2.748,0,0,0,6,22.75H18A2.748,2.748,0,0,0,20.75,20ZM16,18.75H8a.75.75,0,0,1,0-1.5h8a.75.75,0,0,1,0,1.5Zm0-4H8a.75.75,0,0,1,0-1.5h8a.75.75,0,0,1,0,1.5Zm0-4H8a.75.75,0,0,1,0-1.5h8a.75.75,0,0,1,0,1.5Z"/></g><text x="0" y="39" fill="#000000" font-size="5px" font-weight="bold" font-family="'Helvetica Neue', Helvetica, Arial-Unicode, Arial, Sans-serif">Created by Anggara Putra</text><text x="0" y="44" fill="#000000" font-size="5px" font-weight="bold" font-family="'Helvetica Neue', Helvetica, Arial-Unicode, Arial, Sans-serif">from the Noun Project</text></svg>