<svg xmlns:inkscape="http://www.inkscape.org/namespaces/inkscape" xmlns:sodipodi="http://sodipodi.sourceforge.net/DTD/sodipodi-0.dtd" xmlns="http://www.w3.org/2000/svg" xmlns:svg="http://www.w3.org/2000/svg" xmlns:rdf="http://www.w3.org/1999/02/22-rdf-syntax-ns#" xmlns:cc="http://creativecommons.org/ns#" xmlns:dc="http://purl.org/dc/elements/1.1/" viewBox="0 0 10.583333 13.2291675" version="1.1" x="0px" y="0px"><g><path style="color:#000000;paint-order:fill markers stroke;" d="m 6.4747018,2.3442841 -2.2086491,0.0021 c -0.3539516,8.01e-4 -0.6812597,0.192468 -0.8635126,0.498161 l -1.1622035,1.947168 c -0.1825466,0.305519 -0.1962441,0.683892 -0.02894,0.995805 l 1.0464482,1.945617 c 0.1679734,0.312589 0.4967658,0.50645 0.8516276,0.505913 l 2.2071013,-0.0021 a 0.26460944,0.26460944 0 0 0 0.00207,0 c 0.3539452,-8.03e-4 0.681256,-0.190402 0.8635089,-0.496094 l 1.1616875,-1.947168 c 0.1825387,-0.305521 0.1947016,-0.684412 0.027387,-0.996322 L 7.3247789,2.8522631 a 0.26460944,0.26460944 0 0 0 0,-5.16e-4 0.26460944,0.26460944 0 0 0 0,-5.17e-4 0.26460944,0.26460944 0 0 0 0,-5.17e-4 0.26460944,0.26460944 0 0 0 0,-5.17e-4 C 7.2416495,2.6969191 7.1190442,2.5694221 6.9692451,2.4807101 6.820446,2.3916101 6.6484351,2.3446941 6.4747018,2.3442841 Z m 0,0.529167 c 0.079851,1.88e-4 0.1559798,0.02031 0.2227262,0.06046 a 0.26460944,0.26460944 0 0 0 0.00207,0.0021 c 0.067022,0.03969 0.1221264,0.09775 0.1601973,0.167949 l 1.0469642,1.94355 h -0.00207 c 0.07693,0.143408 0.073917,0.324741 -0.015502,0.47439 l -1.1622034,1.947685 c -0.08927,0.149732 -0.2475733,0.239409 -0.4103105,0.239778 l -2.2086517,0.0021 C 3.9447692,7.7116461 3.8022276,7.6246401 3.7249984,7.4809211 L 2.6780342,5.5378881 v -0.0021 c -0.075949,-0.143133 -0.073546,-0.323807 0.015505,-0.472839 a 0.26460944,0.26460944 0 0 0 0.00207,-0.0021 l 1.160137,-1.945101 c 0.089264,-0.149667 0.2475666,-0.239862 0.4103065,-0.24023 z m -1.1833886,1.144633 c -0.7000928,0 -1.2733073,0.573214 -1.2733073,1.273307 0,0.700094 0.5732145,1.273307 1.2733073,1.273307 0.7000927,0 1.2733072,-0.573213 1.2733072,-1.273307 0,-0.700093 -0.5732145,-1.273307 -1.2733072,-1.273307 z m 0,0.529166 c 0.4141099,0 0.7441406,0.33003 0.7441406,0.744141 0,0.414111 -0.3300307,0.744141 -0.7441406,0.744141 -0.41411,0 -0.7441407,-0.33003 -0.7441407,-0.744141 0,-0.414111 0.3300307,-0.744141 0.7441407,-0.744141 z" fill="#000000" fill-rule="evenodd" stroke-width="1" stroke-linecap="round" stroke-linejoin="round"/></g><text x="0" y="25.583334" fill="#000000" font-size="5px" font-weight="bold" font-family="'Helvetica Neue', Helvetica, Arial-Unicode, Arial, Sans-serif">Created by Alzam</text><text x="0" y="30.583334" fill="#000000" font-size="5px" font-weight="bold" font-family="'Helvetica Neue', Helvetica, Arial-Unicode, Arial, Sans-serif">from the Noun Project</text></svg>