<svg xmlns="http://www.w3.org/2000/svg" xmlns:xlink="http://www.w3.org/1999/xlink" version="1.1" viewBox="0 0 33.9999 42.499874999999996" x="0px" y="0px"><g data-name=""><path transform="matrix(1,0,0,-1,0,33.9999)" d="M23.1361 12.022H27.7951C28.2597 12.022 28.6841 11.8312 28.9925 11.5234L28.9945 11.5214C29.3023 11.213 29.4931 10.7887 29.4931 10.3241 29.4931 9.8566 29.302 9.4314 28.9947 9.1242L28.9936 9.125 28.9928 9.1242C28.6849 8.8169 28.2606 8.6258 27.7951 8.6258H23.1361C22.6687 8.6258 22.2435 8.8169 21.9365 9.1242 21.6292 9.4314 21.4381 9.8566 21.4381 10.3241 21.4381 10.7887 21.6289 11.213 21.9368 11.5214L21.9387 11.5234C22.2469 11.831 22.6715 12.022 23.1361 12.022ZM27.7951 10.9553H23.1361C22.962 10.9553 22.8039 10.8848 22.6908 10.7714L22.6888 10.7694C22.5754 10.6563 22.5048 10.4981 22.5048 10.3241 22.5048 10.1506 22.5763 9.9927 22.6905 9.8782 22.8047 9.7639 22.9629 9.6925 23.1361 9.6925H27.7951C27.9689 9.6925 28.1271 9.7634 28.2416 9.877L28.2407 9.8782C28.355 9.9927 28.4264 10.1506 28.4264 10.3241 28.4264 10.4981 28.3558 10.6563 28.2424 10.7694L28.2404 10.7714C28.1273 10.8848 27.9692 10.9553 27.7951 10.9553ZM32.9998 7.763V19.165H1.0001V7.763C1.0001 7.3644 1.1636 7.0016 1.4264 6.7388 1.6889 6.476 2.0517 6.3125 2.4503 6.3125H31.5496C31.9476 6.3125 32.311 6.476 32.5735 6.7388 32.8363 7.0016 32.9998 7.3644 32.9998 7.763ZM32.9998 23.1993H1.0001V20.232H32.9998ZM31.5496 27.6877H2.4503C2.0517 27.6877 1.6889 27.5241 1.4264 27.2614 1.1636 26.9986 1.0001 26.6355 1.0001 26.2372V24.266H32.9998V26.2372C32.9998 26.6355 32.8363 26.9986 32.5735 27.2614 32.311 27.5241 31.9476 27.6877 31.5496 27.6877"/></g><text x="0" y="48.9999" fill="#000000" font-size="5px" font-weight="bold" font-family="'Helvetica Neue', Helvetica, Arial-Unicode, Arial, Sans-serif">Created by Alvida Black</text><text x="0" y="53.9999" fill="#000000" font-size="5px" font-weight="bold" font-family="'Helvetica Neue', Helvetica, Arial-Unicode, Arial, Sans-serif">from the Noun Project</text></svg>